<svg xmlns="http://www.w3.org/2000/svg" width="24" height="18" viewBox="0 0 24 18">
  <defs>
    <style>
      .cls-1 {
        fill: #b99403;
        fill-rule: evenodd;
      }
    </style>
  </defs>
  <path class="cls-1" d="M23.736,17.3L15.46,9.023,21.585,2.9l2.17-2.17A1.458,1.458,0,0,1,24,1.5v15A1.458,1.458,0,0,1,23.736,17.3ZM21.055,2.368L18.261,5.162l-5.346,5.346-0.938.938L2.945,2.415l-1.5-1.5L0.756,0.226A1.458,1.458,0,0,1,1.5,0h21a1.46,1.46,0,0,1,.716.207l-0.755.755ZM0.915,1.445L8.47,9,0.226,17.244A1.459,1.459,0,0,1,0,16.5V1.5A1.458,1.458,0,0,1,.226.756L0.915,1.445h0ZM9,9.53L9.317,9.847,9.43,9.96l1.031,1.031,1.5,1.5,0.063-.063,0.016,0.016,1.406-1.406L14.93,9.554l8.258,8.258A1.461,1.461,0,0,1,22.5,18H1.5a1.459,1.459,0,0,1-.744-0.226Z"/>
</svg>
