<svg xmlns="http://www.w3.org/2000/svg" width="83" height="83" viewBox="0 0 83 83">
  <defs>
    <style>
      .cls-1, .cls-2 {
        fill: #f5c506;
        fill-rule: evenodd;
      }

      .cls-1 {
        opacity: 0.5;
      }
    </style>
  </defs>
  <path id="Shape_8_copy_4" data-name="Shape 8 copy 4" class="cls-1" d="M2.174,22.287l18.781-.713L20.829,2.779l8.019,7.668,0.126,18.795-18.781.712Zm12.17,11.638,18.78-.713L33,14.418l8.019,7.668,0.126,18.795-18.781.712ZM62.171,79.662L62.045,60.868l18.781-.714-8.019-7.668L54.025,53.2l0.127,18.794ZM50,68.024L49.875,49.23l18.781-.714-8.019-7.668-18.782.713,0.127,18.794ZM60.434,1.895l0.713,18.78,18.794-.126-7.668,8.019-18.795.126L52.766,9.913ZM48.8,14.065l0.713,18.781L68.3,32.719l-7.668,8.019-18.795.126L41.127,22.083ZM3.059,61.892l18.794-.126,0.714,18.781,7.668-8.019L29.521,53.746l-18.794.127ZM14.7,49.722L33.491,49.6,34.2,68.377l7.668-8.019L41.16,41.576,22.365,41.7Z"/>
  <path id="Shape_8_copy_3" data-name="Shape 8 copy 3" class="cls-2" d="M-0.008,55l13.08-13.5L-0.008,28h11.1L24.169,41.5,11.087,55h-11.1Zm16.839,0,13.08-13.5L16.831,28h11.1L41.008,41.5,27.927,55h-11.1Zm66.177,0L69.928,41.5,83.008,28h-11.1L58.831,41.5,71.913,55h11.1ZM66.169,55L53.088,41.5,66.169,28h-11.1L41.992,41.5,55.073,55h11.1ZM28-.008l13.5,13.08L55-.008v11.1L41.5,24.169,28,11.087v-11.1Zm0,16.839,13.5,13.08L55,16.831v11.1L41.5,41.008,28,27.927v-11.1Zm0,66.177,13.5-13.08L55,83.008v-11.1L41.5,58.831,28,71.913v11.1Zm0-16.839,13.5-13.08L55,66.169v-11.1L41.5,41.992,28,55.073v11.1Z"/>
</svg>
