<svg xmlns="http://www.w3.org/2000/svg" width="163" height="133" viewBox="0 0 163 133">
  <defs>
    <style>
      .cls-1 {
        fill: #bc7d00;
        fill-opacity: 0.9;
        fill-rule: evenodd;
      }
    </style>
  </defs>
  <path id="twitter" class="cls-1" d="M163,15.313L147.717,30.626v2.553a33,33,0,0,1-1.1,8.068c-0.356,21.066-7.052,49-34.556,71.051C57.96,155.668,0,117.4,0,117.4c45.844,0,45.844-15.314,45.844-15.314-10.187,0-30.562-20.417-30.562-20.417,5.094,5.1,15.281,0,15.281,0C5.092,66.357,5.092,51.044,5.092,51.044c5.094,5.1,15.281,0,15.281,0C-5.095,30.626,10.186,5.1,10.186,5.1,15.28,30.626,81.5,40.835,81.5,40.835l0.842-.422a60.645,60.645,0,0,1-.842-9.787C81.5,12.3,96.322,0,114.608,0A32.856,32.856,0,0,1,139.65,11.7l2.974-1.49L157.905,0,147.717,20.417Z"/>
</svg>
